<svg width="87" height="26" fill="none" xmlns="http://www.w3.org/2000/svg"><path d="M5.25 1H.75a.75.75 0 0 0-.75.75v16.5c0 .414.336.75.75.75h4.5a.75.75 0 0 0 .75-.75V1.75A.75.75 0 0 0 5.25 1Zm8 0h-4.5a.75.75 0 0 0-.75.75v22.5c0 .414.336.75.75.75h4.5a.75.75 0 0 0 .75-.75V1.75a.75.75 0 0 0-.75-.75Zm20.762 24.2v-6.942h-.416a3.97 3.97 0 0 1-.832 1.014c-.364.312-.832.572-1.404.78-.555.208-1.248.312-2.08.312a5.826 5.826 0 0 1-2.964-.78c-.901-.52-1.62-1.265-2.158-2.236-.537-.988-.806-2.175-.806-3.562v-.39c0-1.387.269-2.565.806-3.536.555-.988 1.283-1.742 2.184-2.262.901-.52 1.88-.78 2.938-.78 1.248 0 2.201.225 2.86.676.676.45 1.179.962 1.508 1.534h.416V7.182h2.626V25.2h-2.678Zm-3.978-7.176c1.179 0 2.14-.373 2.886-1.118.745-.745 1.118-1.811 1.118-3.198v-.234c0-1.37-.381-2.427-1.144-3.172-.745-.745-1.699-1.118-2.86-1.118-1.144 0-2.097.373-2.86 1.118-.745.745-1.118 1.803-1.118 3.172v.234c0 1.387.373 2.453 1.118 3.198.763.745 1.716 1.118 2.86 1.118Zm13.692 2.21c-.97 0-1.837-.217-2.6-.65a4.6 4.6 0 0 1-1.794-1.846c-.433-.797-.65-1.75-.65-2.86V7.182h2.678v7.514c0 1.11.278 1.933.832 2.47.555.52 1.326.78 2.314.78 1.092 0 1.968-.364 2.626-1.092.676-.745 1.014-1.811 1.014-3.198V7.182h2.678V20h-2.626v-1.924h-.416c-.242.52-.676 1.014-1.3 1.482-.624.45-1.542.676-2.756.676Zm16.647.13c-1.248 0-2.21-.225-2.886-.676-.659-.45-1.153-.953-1.482-1.508h-.416V20h-2.626V1.8h2.678v7.124h.416c.208-.347.485-.676.832-.988.347-.33.806-.598 1.378-.806.572-.208 1.274-.312 2.106-.312 1.075 0 2.063.26 2.964.78.901.52 1.62 1.274 2.158 2.262.537.988.806 2.167.806 3.536v.39c0 1.387-.277 2.574-.832 3.562-.537.97-1.257 1.716-2.158 2.236-.884.52-1.863.78-2.938.78Zm-.78-2.34c1.161 0 2.115-.373 2.86-1.118.763-.745 1.144-1.811 1.144-3.198v-.234c0-1.37-.373-2.427-1.118-3.172-.745-.745-1.707-1.118-2.886-1.118-1.144 0-2.097.373-2.86 1.118-.745.745-1.118 1.803-1.118 3.172v.234c0 1.387.373 2.453 1.118 3.198.763.745 1.716 1.118 2.86 1.118ZM67.799 20V7.182h2.678V20H67.8Zm1.352-14.56c-.52 0-.962-.165-1.326-.494-.347-.347-.52-.789-.52-1.326s.173-.97.52-1.3a1.85 1.85 0 0 1 1.326-.52c.538 0 .98.173 1.326.52.347.33.52.763.52 1.3s-.173.98-.52 1.326c-.347.33-.788.494-1.326.494Zm9.434 14.924c-1.23 0-2.348-.26-3.353-.78a5.934 5.934 0 0 1-2.367-2.262c-.572-.988-.858-2.175-.858-3.562v-.338c0-1.387.286-2.565.858-3.536a5.934 5.934 0 0 1 2.367-2.262c1.005-.537 2.123-.806 3.353-.806 1.231 0 2.28.225 3.147.676.866.45 1.56 1.049 2.08 1.794a5.888 5.888 0 0 1 1.04 2.47l-2.6.546a4.285 4.285 0 0 0-.546-1.56 3.028 3.028 0 0 0-1.17-1.118c-.503-.277-1.136-.416-1.898-.416-.746 0-1.422.173-2.029.52-.589.33-1.057.815-1.403 1.456-.347.624-.52 1.387-.52 2.288v.234c0 .901.173 1.673.52 2.314.346.641.814 1.127 1.403 1.456.607.33 1.283.494 2.029.494 1.126 0 1.984-.286 2.573-.858.59-.59.963-1.335 1.118-2.236l2.6.598a6.807 6.807 0 0 1-1.118 2.444c-.52.745-1.213 1.343-2.08 1.794-.866.433-1.915.65-3.145.65Z" fill="#0C131B"></path></svg>
